<?xml version="1.0" standalone="no"?><!DOCTYPE svg PUBLIC "-//W3C//DTD SVG 1.1//EN" "http://www.w3.org/Graphics/SVG/1.1/DTD/svg11.dtd"><svg t="1628512271172" class="icon" viewBox="0 0 1024 1024" version="1.1" xmlns="http://www.w3.org/2000/svg" p-id="4677" xmlns:xlink="http://www.w3.org/1999/xlink" width="200" height="200"><defs><style type="text/css"></style></defs><path d="M420.4 913.3l198.9-198.9 5.2-5.2c1.4-1.4 2.6-2.8 3.8-4.3 76.1-85.7 73.1-217-9-299.1-7-7-14.4-13.4-22.1-19.3l-50.1 64.7c4.4 3.5 7.2 5.4 14.3 12.5 52.9 52.9 53.2 138.4 1 191.7L364.1 853.7l-0.1-0.1c-1.1 1.2-2.3 2.4-3.5 3.6-53.2 53.2-139.6 53.2-192.8 0-53.2-53.2-53.2-139.6 0-192.8 1.5-1.5 3-2.9 4.6-4.3l-0.1-0.1 96-96-57.9-57.9-98.5 98.5-0.7 0.7-1.2 1.2c-85.2 85.2-85.2 223.4 0 308.6 85.2 85.2 223.4 85.2 308.6 0 0.4-0.4 0.8-0.8 1.2-1.3 0.2-0.1 0.5-0.3 0.7-0.5z" fill="#242424" p-id="4678"></path><path d="M480.8 578.3c-4-3.3-11.3-9.1-18.2-15.9-53.2-53.2-53.2-139.6 0-192.8 1.5-1.5 3-2.9 4.6-4.3l-0.1-0.1L665.3 167c53.4-51.4 138.3-50.8 190.9 1.8 52.9 52.9 53.2 138.4 1 191.7L757.8 460l57.9 57.9 98.5-98.5 5.2-5.2c1.4-1.4 2.6-2.8 3.8-4.3 76.1-85.7 73.1-217-9-299.1-82.1-82.1-213.3-85.1-299.1-9-1.5 1.1-3 2.4-4.3 3.8L406.6 309.8l-0.7 0.7-1.2 1.2c-85.2 85.2-85.2 223.4 0 308.6 6.7 6.7 13.8 12.9 21.1 18.6l55-60.6z" fill="#242424" p-id="4679"></path><path d="M197.620454 539.083086a40.898773 40.898773 0 1 0 81.546398-6.404953 40.898773 40.898773 0 1 0-81.546398 6.404953Z" fill="#242424" p-id="4680"></path><path d="M532.111847 422.48802a40.898773 40.898773 0 1 0 81.546399-6.404952 40.898773 40.898773 0 1 0-81.546399 6.404952Z" fill="#242424" p-id="4681"></path><path d="M411.610657 610.987133a40.898773 40.898773 0 1 0 81.546399-6.404953 40.898773 40.898773 0 1 0-81.546399 6.404953Z" fill="#242424" p-id="4682"></path><path d="M746.007396 492.188238a40.898773 40.898773 0 1 0 81.546398-6.404952 40.898773 40.898773 0 1 0-81.546398 6.404952Z" fill="#242424" p-id="4683"></path></svg>