<?xml version="1.0" standalone="no"?><!DOCTYPE svg PUBLIC "-//W3C//DTD SVG 1.1//EN" "http://www.w3.org/Graphics/SVG/1.1/DTD/svg11.dtd"><svg t="1628512302311" class="icon" viewBox="0 0 1024 1024" version="1.1" xmlns="http://www.w3.org/2000/svg" p-id="5528" xmlns:xlink="http://www.w3.org/1999/xlink" width="200" height="200"><defs><style type="text/css"></style></defs><path d="M895.115 0a34.13 34.13 0 0 1 34.13 34.13v613.667a34.13 34.13 0 1 1-68.26 0V68.26H110.966v886.54H554.15a34.13 34.13 0 1 1 0 68.175H76.836a34.13 34.13 0 0 1-34.13-34.13V34.13A34.13 34.13 0 0 1 76.836 0h818.279zM622.327 511.445A204.612 204.612 0 0 1 785.3 839.695l132.938 123.809a34.813 34.813 0 0 1 0 48.465 34.13 34.13 0 0 1-23.123 10.922 34.13 34.13 0 0 1-23.209-8.874l-137.205-127.05a204.612 204.612 0 1 1-112.374-375.522z m0 68.176a136.351 136.351 0 1 0 0 272.788 136.351 136.351 0 0 0 0-272.788zM349.539 750.017a34.13 34.13 0 0 1 0 68.176H213.188a34.13 34.13 0 0 1 0-68.26h136.35z m68.26-272.787a34.13 34.13 0 1 1 0 68.26H213.103a34.13 34.13 0 0 1 0-68.26H417.63z m340.794-272.618a34.13 34.13 0 0 1 0 68.176H213.188a34.13 34.13 0 0 1 0-68.261h545.405z" p-id="5529"></path></svg>