<?xml version="1.0" standalone="no"?><!DOCTYPE svg PUBLIC "-//W3C//DTD SVG 1.1//EN" "http://www.w3.org/Graphics/SVG/1.1/DTD/svg11.dtd"><svg t="1628582143823" class="icon" viewBox="0 0 1024 1024" version="1.1" xmlns="http://www.w3.org/2000/svg" p-id="1542" xmlns:xlink="http://www.w3.org/1999/xlink" width="200" height="200"><defs><style type="text/css"></style></defs><path d="M785.9 116.7H240.1v205.8h545.8V116.7zM804 53.2c23 0 41.7 18.7 41.7 41.7v250.3c0 23-18.7 41.7-41.7 41.7H220c-23 0-41.7-18.7-41.7-41.7V94.9c0-23 18.7-41.7 41.7-41.7h584zM785.9 700.7H240.1v205.8h545.8V700.7z m18.1-63.6c23 0 41.7 18.7 41.7 41.7v250.3c0 23-18.7 41.7-41.7 41.7H220c-23 0-41.7-18.7-41.7-41.7V678.8c0-23 18.7-41.7 41.7-41.7h584zM11.5 478.6h1001.1v66.7H11.5z" p-id="1543"></path></svg>